<svg id="Layer_1" data-name="Layer 1" xmlns="http://www.w3.org/2000/svg" width="100" height="100" viewBox="0 0 100 100">
<style type="text/css">
	.st0{fill:none;stroke:#FFFFFF;stroke-width:3;stroke-miterlimit:10;}
	.st1{fill:#FFFFFF;}
</style>
<g>
	<path class="st0" d="M86.6,6.5H13.4c-3.9,0.1-7,3.3-6.9,7.2v72.7c-0.1,3.9,3,7.1,6.9,7.2h73.2c3.9-0.1,7-3.3,6.9-7.2V13.7
		C93.6,9.8,90.5,6.6,86.6,6.5z"/>
	<path class="st1" d="M50,56.4c-5.1,0.2-9.5-3.8-9.7-8.9s3.8-9.5,8.9-9.7s9.5,3.8,9.7,8.9c0,0.1,0,0.2,0,0.4
		C59,52.1,55,56.3,50,56.4z"/>
</g>
</svg>
